<mxfile host="Electron" agent="Mozilla/5.0 (Windows NT 10.0; Win64; x64) AppleWebKit/537.36 (KHTML, like Gecko) draw.io/24.7.8 Chrome/128.0.6613.36 Electron/32.0.1 Safari/537.36" version="24.7.8">
  <diagram name="Page-1" id="Wpy7xv8QskRpIHuKKQmq">
    <mxGraphModel dx="1509" dy="880" grid="1" gridSize="10" guides="1" tooltips="1" connect="1" arrows="1" fold="1" page="1" pageScale="1" pageWidth="850" pageHeight="1100" math="0" shadow="0">
      <root>
        <mxCell id="0" />
        <mxCell id="1" parent="0" />
        <mxCell id="2IhK8GrAqMyM78Xk01OE-1" style="edgeStyle=orthogonalEdgeStyle;rounded=0;orthogonalLoop=1;jettySize=auto;html=1;entryX=0.5;entryY=1;entryDx=0;entryDy=0;horizontal=1;strokeWidth=1;curved=0;endArrow=block;endFill=0;exitX=0.5;exitY=0;exitDx=0;exitDy=0;" parent="1" source="2IhK8GrAqMyM78Xk01OE-40" target="2IhK8GrAqMyM78Xk01OE-2" edge="1">
          <mxGeometry relative="1" as="geometry">
            <mxPoint x="1175" y="688" as="sourcePoint" />
          </mxGeometry>
        </mxCell>
        <mxCell id="2IhK8GrAqMyM78Xk01OE-2" value="&lt;b&gt;USaveGame&lt;/b&gt;" style="html=1;whiteSpace=wrap;" parent="1" vertex="1">
          <mxGeometry x="1120" y="598" width="110" height="50" as="geometry" />
        </mxCell>
        <mxCell id="2IhK8GrAqMyM78Xk01OE-3" style="edgeStyle=orthogonalEdgeStyle;rounded=0;orthogonalLoop=1;jettySize=auto;html=1;entryX=0.5;entryY=1;entryDx=0;entryDy=0;endArrow=block;endFill=0;" parent="1" source="2IhK8GrAqMyM78Xk01OE-4" target="2IhK8GrAqMyM78Xk01OE-14" edge="1">
          <mxGeometry relative="1" as="geometry" />
        </mxCell>
        <mxCell id="2IhK8GrAqMyM78Xk01OE-4" value="AAdvProgGameMode" style="swimlane;fontStyle=1;align=center;verticalAlign=top;childLayout=stackLayout;horizontal=1;startSize=26;horizontalStack=0;resizeParent=1;resizeParentMax=0;resizeLast=0;collapsible=1;marginBottom=0;whiteSpace=wrap;html=1;swimlaneFillColor=#FFFFFF;" parent="1" vertex="1">
          <mxGeometry x="690" y="440" width="260" height="250" as="geometry" />
        </mxCell>
        <mxCell id="2IhK8GrAqMyM78Xk01OE-5" value="- Highscore: int" style="text;strokeColor=none;fillColor=none;align=left;verticalAlign=top;spacingLeft=4;spacingRight=4;overflow=hidden;rotatable=0;points=[[0,0.5],[1,0.5]];portConstraint=eastwest;whiteSpace=wrap;html=1;" parent="2IhK8GrAqMyM78Xk01OE-4" vertex="1">
          <mxGeometry y="26" width="260" height="26" as="geometry" />
        </mxCell>
        <mxCell id="2IhK8GrAqMyM78Xk01OE-6" value="- LastPlayerSavedLocation: FVector" style="text;strokeColor=none;fillColor=none;align=left;verticalAlign=top;spacingLeft=4;spacingRight=4;overflow=hidden;rotatable=0;points=[[0,0.5],[1,0.5]];portConstraint=eastwest;html=1;whiteSpace=wrap;" parent="2IhK8GrAqMyM78Xk01OE-4" vertex="1">
          <mxGeometry y="52" width="260" height="30" as="geometry" />
        </mxCell>
        <mxCell id="2IhK8GrAqMyM78Xk01OE-7" value="" style="line;strokeWidth=1;fillColor=none;align=left;verticalAlign=middle;spacingTop=-1;spacingLeft=3;spacingRight=3;rotatable=0;labelPosition=right;points=[];portConstraint=eastwest;strokeColor=inherit;" parent="2IhK8GrAqMyM78Xk01OE-4" vertex="1">
          <mxGeometry y="82" width="260" height="8" as="geometry" />
        </mxCell>
        <mxCell id="2IhK8GrAqMyM78Xk01OE-8" value="&lt;font color=&quot;#808080&quot;&gt;+ BeginPlay()&lt;/font&gt;" style="text;strokeColor=none;fillColor=none;align=left;verticalAlign=top;spacingLeft=4;spacingRight=4;overflow=hidden;rotatable=0;points=[[0,0.5],[1,0.5]];portConstraint=eastwest;whiteSpace=wrap;html=1;" parent="2IhK8GrAqMyM78Xk01OE-4" vertex="1">
          <mxGeometry y="90" width="260" height="26" as="geometry" />
        </mxCell>
        <mxCell id="2IhK8GrAqMyM78Xk01OE-9" value="&lt;font color=&quot;#808080&quot;&gt;+ Tick(float)&lt;/font&gt;" style="text;strokeColor=none;fillColor=none;align=left;verticalAlign=top;spacingLeft=4;spacingRight=4;overflow=hidden;rotatable=0;points=[[0,0.5],[1,0.5]];portConstraint=eastwest;whiteSpace=wrap;html=1;" parent="2IhK8GrAqMyM78Xk01OE-4" vertex="1">
          <mxGeometry y="116" width="260" height="26" as="geometry" />
        </mxCell>
        <mxCell id="2IhK8GrAqMyM78Xk01OE-10" value="&lt;font color=&quot;#808080&quot;&gt;+ EndPlay(EEndPlayReason::Type)&lt;/font&gt;" style="text;strokeColor=none;fillColor=none;align=left;verticalAlign=top;spacingLeft=4;spacingRight=4;overflow=hidden;rotatable=0;points=[[0,0.5],[1,0.5]];portConstraint=eastwest;whiteSpace=wrap;html=1;" parent="2IhK8GrAqMyM78Xk01OE-4" vertex="1">
          <mxGeometry y="142" width="260" height="26" as="geometry" />
        </mxCell>
        <mxCell id="2IhK8GrAqMyM78Xk01OE-11" value="+ ReportScore(int)" style="text;strokeColor=none;fillColor=none;align=left;verticalAlign=top;spacingLeft=4;spacingRight=4;overflow=hidden;rotatable=0;points=[[0,0.5],[1,0.5]];portConstraint=eastwest;whiteSpace=wrap;html=1;" parent="2IhK8GrAqMyM78Xk01OE-4" vertex="1">
          <mxGeometry y="168" width="260" height="26" as="geometry" />
        </mxCell>
        <mxCell id="2IhK8GrAqMyM78Xk01OE-12" value="+ GetLastSavedPlayerLocation(): FVector" style="text;strokeColor=none;fillColor=none;align=left;verticalAlign=top;spacingLeft=4;spacingRight=4;overflow=hidden;rotatable=0;points=[[0,0.5],[1,0.5]];portConstraint=eastwest;whiteSpace=wrap;html=1;" parent="2IhK8GrAqMyM78Xk01OE-4" vertex="1">
          <mxGeometry y="194" width="260" height="30" as="geometry" />
        </mxCell>
        <mxCell id="2IhK8GrAqMyM78Xk01OE-13" value="+ GetHighScore(): int" style="text;strokeColor=none;fillColor=none;align=left;verticalAlign=top;spacingLeft=4;spacingRight=4;overflow=hidden;rotatable=0;points=[[0,0.5],[1,0.5]];portConstraint=eastwest;whiteSpace=wrap;html=1;" parent="2IhK8GrAqMyM78Xk01OE-4" vertex="1">
          <mxGeometry y="224" width="260" height="26" as="geometry" />
        </mxCell>
        <mxCell id="2IhK8GrAqMyM78Xk01OE-14" value="&lt;b&gt;AGameModeBase&lt;/b&gt;" style="html=1;whiteSpace=wrap;" parent="1" vertex="1">
          <mxGeometry x="765" y="340" width="110" height="50" as="geometry" />
        </mxCell>
        <mxCell id="2IhK8GrAqMyM78Xk01OE-15" style="edgeStyle=orthogonalEdgeStyle;rounded=0;orthogonalLoop=1;jettySize=auto;html=1;entryX=0.5;entryY=1;entryDx=0;entryDy=0;endArrow=block;endFill=0;" parent="1" source="2IhK8GrAqMyM78Xk01OE-16" target="2IhK8GrAqMyM78Xk01OE-4" edge="1">
          <mxGeometry relative="1" as="geometry" />
        </mxCell>
        <mxCell id="2IhK8GrAqMyM78Xk01OE-16" value="&lt;b&gt;BP_ThirdPerson&lt;/b&gt;&lt;div&gt;&lt;b&gt;GameMode&lt;/b&gt;&lt;/div&gt;" style="html=1;whiteSpace=wrap;" parent="1" vertex="1">
          <mxGeometry x="765" y="720" width="110" height="50" as="geometry" />
        </mxCell>
        <mxCell id="2IhK8GrAqMyM78Xk01OE-17" style="edgeStyle=orthogonalEdgeStyle;shape=connector;rounded=0;orthogonalLoop=1;jettySize=auto;html=1;strokeColor=default;align=center;verticalAlign=middle;fontFamily=Helvetica;fontSize=11;fontColor=default;labelBackgroundColor=default;endArrow=block;endFill=0;entryX=0.5;entryY=1;entryDx=0;entryDy=0;" parent="1" source="2IhK8GrAqMyM78Xk01OE-18" target="2IhK8GrAqMyM78Xk01OE-25" edge="1">
          <mxGeometry relative="1" as="geometry">
            <mxPoint x="925" y="100" as="targetPoint" />
            <Array as="points">
              <mxPoint x="1205" y="120" />
              <mxPoint x="905" y="120" />
            </Array>
          </mxGeometry>
        </mxCell>
        <mxCell id="2IhK8GrAqMyM78Xk01OE-18" value="APickupActor" style="swimlane;fontStyle=1;align=center;verticalAlign=top;childLayout=stackLayout;horizontal=1;startSize=26;horizontalStack=0;resizeParent=1;resizeParentMax=0;resizeLast=0;collapsible=1;marginBottom=0;whiteSpace=wrap;html=1;swimlaneFillColor=#FFFFFF;" parent="1" vertex="1">
          <mxGeometry x="1080" y="220" width="200" height="168" as="geometry" />
        </mxCell>
        <mxCell id="2IhK8GrAqMyM78Xk01OE-19" value="+ RotationSpeed: float" style="text;strokeColor=none;fillColor=none;align=left;verticalAlign=top;spacingLeft=4;spacingRight=4;overflow=hidden;rotatable=0;points=[[0,0.5],[1,0.5]];portConstraint=eastwest;whiteSpace=wrap;html=1;" parent="2IhK8GrAqMyM78Xk01OE-18" vertex="1">
          <mxGeometry y="26" width="200" height="26" as="geometry" />
        </mxCell>
        <mxCell id="2IhK8GrAqMyM78Xk01OE-20" value="+ Points: int" style="text;strokeColor=none;fillColor=none;align=left;verticalAlign=top;spacingLeft=4;spacingRight=4;overflow=hidden;rotatable=0;points=[[0,0.5],[1,0.5]];portConstraint=eastwest;whiteSpace=wrap;html=1;" parent="2IhK8GrAqMyM78Xk01OE-18" vertex="1">
          <mxGeometry y="52" width="200" height="26" as="geometry" />
        </mxCell>
        <mxCell id="2IhK8GrAqMyM78Xk01OE-21" value="" style="line;strokeWidth=1;fillColor=none;align=left;verticalAlign=middle;spacingTop=-1;spacingLeft=3;spacingRight=3;rotatable=0;labelPosition=right;points=[];portConstraint=eastwest;strokeColor=inherit;" parent="2IhK8GrAqMyM78Xk01OE-18" vertex="1">
          <mxGeometry y="78" width="200" height="8" as="geometry" />
        </mxCell>
        <mxCell id="2IhK8GrAqMyM78Xk01OE-22" value="&lt;font color=&quot;#808080&quot;&gt;# BeginPlay()&lt;/font&gt;" style="text;strokeColor=none;fillColor=none;align=left;verticalAlign=top;spacingLeft=4;spacingRight=4;overflow=hidden;rotatable=0;points=[[0,0.5],[1,0.5]];portConstraint=eastwest;whiteSpace=wrap;html=1;" parent="2IhK8GrAqMyM78Xk01OE-18" vertex="1">
          <mxGeometry y="86" width="200" height="26" as="geometry" />
        </mxCell>
        <mxCell id="2IhK8GrAqMyM78Xk01OE-23" value="&lt;font color=&quot;#808080&quot;&gt;# NotifyActorBeginOverlap(AActor)&lt;/font&gt;" style="text;strokeColor=none;fillColor=none;align=left;verticalAlign=top;spacingLeft=4;spacingRight=4;overflow=hidden;rotatable=0;points=[[0,0.5],[1,0.5]];portConstraint=eastwest;whiteSpace=wrap;html=1;" parent="2IhK8GrAqMyM78Xk01OE-18" vertex="1">
          <mxGeometry y="112" width="200" height="30" as="geometry" />
        </mxCell>
        <mxCell id="2IhK8GrAqMyM78Xk01OE-24" value="&lt;font color=&quot;#808080&quot;&gt;+ Tick(float)&lt;/font&gt;" style="text;strokeColor=none;fillColor=none;align=left;verticalAlign=top;spacingLeft=4;spacingRight=4;overflow=hidden;rotatable=0;points=[[0,0.5],[1,0.5]];portConstraint=eastwest;whiteSpace=wrap;html=1;" parent="2IhK8GrAqMyM78Xk01OE-18" vertex="1">
          <mxGeometry y="142" width="200" height="26" as="geometry" />
        </mxCell>
        <mxCell id="2IhK8GrAqMyM78Xk01OE-25" value="&lt;b&gt;AActor&lt;/b&gt;" style="html=1;whiteSpace=wrap;" parent="1" vertex="1">
          <mxGeometry x="850" y="29" width="110" height="50" as="geometry" />
        </mxCell>
        <mxCell id="2IhK8GrAqMyM78Xk01OE-26" style="edgeStyle=orthogonalEdgeStyle;rounded=0;orthogonalLoop=1;jettySize=auto;html=1;entryX=0.5;entryY=1;entryDx=0;entryDy=0;endArrow=block;endFill=0;" parent="1" source="2IhK8GrAqMyM78Xk01OE-27" target="2IhK8GrAqMyM78Xk01OE-18" edge="1">
          <mxGeometry relative="1" as="geometry" />
        </mxCell>
        <mxCell id="2IhK8GrAqMyM78Xk01OE-27" value="&lt;b&gt;BP_PickupActor&lt;br&gt;&lt;/b&gt;" style="html=1;whiteSpace=wrap;" parent="1" vertex="1">
          <mxGeometry x="1125" y="420" width="110" height="50" as="geometry" />
        </mxCell>
        <mxCell id="2IhK8GrAqMyM78Xk01OE-30" style="edgeStyle=orthogonalEdgeStyle;rounded=0;orthogonalLoop=1;jettySize=auto;html=1;entryX=0.5;entryY=1;entryDx=0;entryDy=0;endArrow=block;endFill=0;" parent="1" source="2IhK8GrAqMyM78Xk01OE-31" target="2IhK8GrAqMyM78Xk01OE-37" edge="1">
          <mxGeometry relative="1" as="geometry" />
        </mxCell>
        <mxCell id="2IhK8GrAqMyM78Xk01OE-31" value="AdvProgCharacter" style="swimlane;fontStyle=1;align=center;verticalAlign=top;childLayout=stackLayout;horizontal=1;startSize=26;horizontalStack=0;resizeParent=1;resizeParentMax=0;resizeLast=0;collapsible=1;marginBottom=0;whiteSpace=wrap;html=1;swimlaneFillColor=#FFFFFF;" parent="1" vertex="1">
          <mxGeometry x="428.95" y="248" width="160" height="112" as="geometry" />
        </mxCell>
        <mxCell id="2IhK8GrAqMyM78Xk01OE-32" value="+ Score: int" style="text;strokeColor=none;fillColor=none;align=left;verticalAlign=top;spacingLeft=4;spacingRight=4;overflow=hidden;rotatable=0;points=[[0,0.5],[1,0.5]];portConstraint=eastwest;whiteSpace=wrap;html=1;" parent="2IhK8GrAqMyM78Xk01OE-31" vertex="1">
          <mxGeometry y="26" width="160" height="26" as="geometry" />
        </mxCell>
        <mxCell id="2IhK8GrAqMyM78Xk01OE-33" value="" style="line;strokeWidth=1;fillColor=none;align=left;verticalAlign=middle;spacingTop=-1;spacingLeft=3;spacingRight=3;rotatable=0;labelPosition=right;points=[];portConstraint=eastwest;strokeColor=inherit;" parent="2IhK8GrAqMyM78Xk01OE-31" vertex="1">
          <mxGeometry y="52" width="160" height="8" as="geometry" />
        </mxCell>
        <mxCell id="2IhK8GrAqMyM78Xk01OE-34" value="&lt;font color=&quot;#808080&quot;&gt;# BeginPlay&lt;/font&gt;" style="text;strokeColor=none;fillColor=none;align=left;verticalAlign=top;spacingLeft=4;spacingRight=4;overflow=hidden;rotatable=0;points=[[0,0.5],[1,0.5]];portConstraint=eastwest;whiteSpace=wrap;html=1;" parent="2IhK8GrAqMyM78Xk01OE-31" vertex="1">
          <mxGeometry y="60" width="160" height="26" as="geometry" />
        </mxCell>
        <mxCell id="2IhK8GrAqMyM78Xk01OE-35" value="&lt;font color=&quot;#808080&quot;&gt;+ Tick(float)&lt;/font&gt;" style="text;strokeColor=none;fillColor=none;align=left;verticalAlign=top;spacingLeft=4;spacingRight=4;overflow=hidden;rotatable=0;points=[[0,0.5],[1,0.5]];portConstraint=eastwest;whiteSpace=wrap;html=1;" parent="2IhK8GrAqMyM78Xk01OE-31" vertex="1">
          <mxGeometry y="86" width="160" height="26" as="geometry" />
        </mxCell>
        <mxCell id="2IhK8GrAqMyM78Xk01OE-36" style="edgeStyle=orthogonalEdgeStyle;shape=connector;rounded=0;orthogonalLoop=1;jettySize=auto;html=1;entryX=0.5;entryY=1;entryDx=0;entryDy=0;strokeColor=default;align=center;verticalAlign=middle;fontFamily=Helvetica;fontSize=11;fontColor=default;labelBackgroundColor=default;endArrow=block;endFill=0;targetPerimeterSpacing=0;strokeWidth=1;jumpStyle=none;" parent="1" source="2IhK8GrAqMyM78Xk01OE-37" target="2IhK8GrAqMyM78Xk01OE-25" edge="1">
          <mxGeometry relative="1" as="geometry">
            <Array as="points">
              <mxPoint x="494" y="120" />
              <mxPoint x="905" y="120" />
            </Array>
          </mxGeometry>
        </mxCell>
        <mxCell id="2IhK8GrAqMyM78Xk01OE-37" value="&lt;b&gt;ACharacter&lt;/b&gt;" style="html=1;whiteSpace=wrap;" parent="1" vertex="1">
          <mxGeometry x="453.95" y="159" width="110" height="50" as="geometry" />
        </mxCell>
        <mxCell id="2IhK8GrAqMyM78Xk01OE-38" value="&lt;b&gt;BP_ThirdPerson&lt;/b&gt;&lt;div&gt;&lt;b&gt;Character&lt;/b&gt;&lt;/div&gt;" style="html=1;whiteSpace=wrap;" parent="1" vertex="1">
          <mxGeometry x="453.95" y="399" width="110" height="50" as="geometry" />
        </mxCell>
        <mxCell id="2IhK8GrAqMyM78Xk01OE-39" style="edgeStyle=orthogonalEdgeStyle;rounded=0;orthogonalLoop=1;jettySize=auto;html=1;entryX=0.499;entryY=1.004;entryDx=0;entryDy=0;entryPerimeter=0;endArrow=block;endFill=0;" parent="1" source="2IhK8GrAqMyM78Xk01OE-38" target="2IhK8GrAqMyM78Xk01OE-35" edge="1">
          <mxGeometry relative="1" as="geometry" />
        </mxCell>
        <mxCell id="2IhK8GrAqMyM78Xk01OE-40" value="&lt;b&gt;AAdvProgSaveGame&lt;/b&gt;" style="swimlane;fontStyle=0;childLayout=stackLayout;horizontal=1;startSize=26;fillColor=#FFFFFF;horizontalStack=0;resizeParent=1;resizeParentMax=0;resizeLast=0;collapsible=1;marginBottom=0;whiteSpace=wrap;html=1;swimlaneFillColor=#FFFFFF;" parent="1" vertex="1">
          <mxGeometry x="1080" y="688" width="190" height="82" as="geometry" />
        </mxCell>
        <mxCell id="2IhK8GrAqMyM78Xk01OE-41" value="+ Highscore: int" style="text;strokeColor=none;fillColor=none;align=left;verticalAlign=top;spacingLeft=4;spacingRight=4;overflow=hidden;rotatable=0;points=[[0,0.5],[1,0.5]];portConstraint=eastwest;whiteSpace=wrap;html=1;" parent="2IhK8GrAqMyM78Xk01OE-40" vertex="1">
          <mxGeometry y="26" width="190" height="26" as="geometry" />
        </mxCell>
        <mxCell id="2IhK8GrAqMyM78Xk01OE-42" value="+ LastPlayerLocation: FVector" style="text;strokeColor=none;fillColor=none;align=left;verticalAlign=top;spacingLeft=4;spacingRight=4;overflow=hidden;rotatable=0;points=[[0,0.5],[1,0.5]];portConstraint=eastwest;whiteSpace=wrap;html=1;" parent="2IhK8GrAqMyM78Xk01OE-40" vertex="1">
          <mxGeometry y="52" width="190" height="30" as="geometry" />
        </mxCell>
        <mxCell id="2IhK8GrAqMyM78Xk01OE-43" value="&lt;font style=&quot;font-size: 10px;&quot;&gt;collected by&lt;/font&gt;" style="verticalAlign=bottom;html=1;endArrow=none;endSize=12;edgeStyle=orthogonalEdgeStyle;rounded=0;strokeColor=default;align=center;fontFamily=Helvetica;fontSize=11;fontColor=default;labelBackgroundColor=default;strokeWidth=2;startArrow=block;startFill=1;endFill=0;entryX=0;entryY=0.5;entryDx=0;entryDy=0;exitX=1;exitY=0.5;exitDx=0;exitDy=0;" parent="1" source="2IhK8GrAqMyM78Xk01OE-31" target="2IhK8GrAqMyM78Xk01OE-18" edge="1">
          <mxGeometry relative="1" as="geometry">
            <mxPoint x="590" y="304" as="sourcePoint" />
            <mxPoint x="1020" y="310" as="targetPoint" />
          </mxGeometry>
        </mxCell>
        <mxCell id="2IhK8GrAqMyM78Xk01OE-44" value="" style="resizable=0;html=1;align=right;verticalAlign=bottom;labelBackgroundColor=none;fontSize=10;fontFamily=Helvetica;fontColor=default;" parent="2IhK8GrAqMyM78Xk01OE-43" connectable="0" vertex="1">
          <mxGeometry x="0.9" relative="1" as="geometry" />
        </mxCell>
        <mxCell id="2IhK8GrAqMyM78Xk01OE-45" value="&lt;font style=&quot;font-size: 10px;&quot;&gt;reports score to&lt;/font&gt;" style="verticalAlign=bottom;html=1;endArrow=none;endSize=12;edgeStyle=orthogonalEdgeStyle;rounded=0;strokeColor=default;align=center;fontFamily=Helvetica;fontSize=11;fontColor=default;labelBackgroundColor=default;strokeWidth=2;startArrow=block;startFill=1;endFill=0;exitX=0.999;exitY=0.532;exitDx=0;exitDy=0;exitPerimeter=0;entryX=0;entryY=0.5;entryDx=0;entryDy=0;" parent="1" source="2IhK8GrAqMyM78Xk01OE-7" target="2IhK8GrAqMyM78Xk01OE-18" edge="1">
          <mxGeometry relative="1" as="geometry">
            <mxPoint x="960" y="570" as="sourcePoint" />
            <mxPoint x="1060" y="320" as="targetPoint" />
          </mxGeometry>
        </mxCell>
        <mxCell id="2IhK8GrAqMyM78Xk01OE-46" value="" style="resizable=0;html=1;align=right;verticalAlign=bottom;labelBackgroundColor=none;fontSize=10;fontFamily=Helvetica;fontColor=default;" parent="2IhK8GrAqMyM78Xk01OE-45" connectable="0" vertex="1">
          <mxGeometry x="0.9" relative="1" as="geometry" />
        </mxCell>
        <mxCell id="2IhK8GrAqMyM78Xk01OE-47" value="&lt;span style=&quot;font-size: 10px;&quot;&gt;loads save data from &amp;gt;&lt;/span&gt;" style="verticalAlign=bottom;html=1;endArrow=block;endSize=6;edgeStyle=orthogonalEdgeStyle;rounded=0;strokeColor=default;align=center;fontFamily=Helvetica;fontSize=11;fontColor=default;labelBackgroundColor=default;strokeWidth=2;startArrow=block;startFill=1;endFill=1;entryX=0;entryY=0.5;entryDx=0;entryDy=0;exitX=0.001;exitY=0.466;exitDx=0;exitDy=0;exitPerimeter=0;" parent="1" source="2IhK8GrAqMyM78Xk01OE-7" target="2IhK8GrAqMyM78Xk01OE-31" edge="1">
          <mxGeometry x="-0.1931" relative="1" as="geometry">
            <mxPoint x="680" y="530" as="sourcePoint" />
            <mxPoint x="380" y="300" as="targetPoint" />
            <Array as="points">
              <mxPoint x="390" y="526" />
              <mxPoint x="390" y="304" />
            </Array>
            <mxPoint as="offset" />
          </mxGeometry>
        </mxCell>
        <mxCell id="2IhK8GrAqMyM78Xk01OE-48" value="" style="resizable=0;html=1;align=right;verticalAlign=bottom;labelBackgroundColor=none;fontSize=10;fontFamily=Helvetica;fontColor=default;" parent="2IhK8GrAqMyM78Xk01OE-47" connectable="0" vertex="1">
          <mxGeometry x="0.9" relative="1" as="geometry" />
        </mxCell>
        <mxCell id="2IhK8GrAqMyM78Xk01OE-49" value="" style="endArrow=open;html=1;endSize=12;startArrow=diamondThin;startSize=14;startFill=1;edgeStyle=orthogonalEdgeStyle;align=left;verticalAlign=bottom;rounded=0;exitX=1;exitY=0.5;exitDx=0;exitDy=0;entryX=0;entryY=0.5;entryDx=0;entryDy=0;" parent="1" source="2IhK8GrAqMyM78Xk01OE-9" target="2IhK8GrAqMyM78Xk01OE-41" edge="1">
          <mxGeometry x="-1" y="3" relative="1" as="geometry">
            <mxPoint x="990" y="630" as="sourcePoint" />
            <mxPoint x="1150" y="630" as="targetPoint" />
          </mxGeometry>
        </mxCell>
        <mxCell id="2IhK8GrAqMyM78Xk01OE-50" value="&lt;font style=&quot;font-size: 10px;&quot;&gt;&amp;lt; gets and saves position of&lt;/font&gt;" style="text;html=1;align=center;verticalAlign=middle;resizable=0;points=[];autosize=1;strokeColor=none;fillColor=none;fontSize=11;" parent="1" vertex="1">
          <mxGeometry x="390" y="520" width="150" height="30" as="geometry" />
        </mxCell>
      </root>
    </mxGraphModel>
  </diagram>
</mxfile>
